<?xml version="1.0" encoding="utf-8" standalone="no"?>
<!DOCTYPE svg PUBLIC "-//W3C//DTD SVG 1.1//EN"
  "http://www.w3.org/Graphics/SVG/1.1/DTD/svg11.dtd">
<svg xmlns:xlink="http://www.w3.org/1999/xlink" width="432pt" height="432pt" viewBox="0 0 432 432" xmlns="http://www.w3.org/2000/svg" version="1.1">
 <metadata>
  <rdf:RDF xmlns:dc="http://purl.org/dc/elements/1.1/" xmlns:cc="http://creativecommons.org/ns#" xmlns:rdf="http://www.w3.org/1999/02/22-rdf-syntax-ns#">
   <cc:Work>
    <dc:type rdf:resource="http://purl.org/dc/dcmitype/StillImage"/>
    <dc:date>2025-03-04T10:37:50.638713</dc:date>
    <dc:format>image/svg+xml</dc:format>
    <dc:creator>
     <cc:Agent>
      <dc:title>Matplotlib v3.6.3, https://matplotlib.org/</dc:title>
     </cc:Agent>
    </dc:creator>
   </cc:Work>
  </rdf:RDF>
 </metadata>
 <defs>
  <style type="text/css">*{stroke-linejoin: round; stroke-linecap: butt}</style>
 </defs>
 <g id="figure_1">
  <g id="patch_1">
   <path d="M 0 432 
L 432 432 
L 432 0 
L 0 0 
z
" style="fill: #ffffff"/>
  </g>
  <g id="axes_1">
   <g id="patch_2">
    <path d="M 54 384.48 
L 388.8 384.48 
L 388.8 51.84 
L 54 51.84 
z
" style="fill: #ffffff"/>
   </g>
   <g id="PathCollection_1">
    <path d="M 277.2 259.844211 
L 278.039098 259.844211 
L 278.878195 259.844211 
L 279.717293 259.844211 
L 280.556391 259.844211 
L 281.395489 259.844211 
L 282.234586 259.844211 
L 283.073684 259.844211 
L 283.912782 259.844211 
L 284.75188 259.844211 
L 285.590977 259.844211 
L 286.430075 259.844211 
L 286.849624 259.427368 
L 287.269173 259.010526 
L 288.108271 259.010526 
L 288.947368 259.010526 
L 289.786466 259.010526 
L 290.625564 259.010526 
L 291.464662 259.010526 
L 292.303759 259.010526 
L 293.142857 259.010526 
L 293.981955 259.010526 
L 294.821053 259.010526 
L 295.66015 259.010526 
L 296.079699 258.593684 
L 296.499248 258.176842 
L 297.338346 258.176842 
L 298.177444 258.176842 
L 299.016541 258.176842 
L 299.855639 258.176842 
L 300.694737 258.176842 
L 301.533835 258.176842 
L 301.953383 257.76 
L 302.372932 257.343158 
L 303.21203 257.343158 
L 304.051128 257.343158 
L 304.890226 257.343158 
L 305.729323 257.343158 
L 306.148872 256.926316 
L 306.568421 256.509474 
L 307.407519 256.509474 
L 308.246617 256.509474 
L 309.085714 256.509474 
L 309.924812 256.509474 
L 310.344361 256.092632 
L 310.76391 255.675789 
L 311.603008 255.675789 
L 312.442105 255.675789 
L 313.281203 255.675789 
L 313.700752 255.258947 
L 314.120301 254.842105 
L 314.959398 254.842105 
L 315.798496 254.842105 
L 316.637594 254.842105 
L 317.057143 254.425263 
L 317.476692 254.008421 
L 318.315789 254.008421 
L 319.154887 254.008421 
L 319.993985 254.008421 
L 320.413534 253.591579 
L 320.833083 253.174737 
L 321.67218 253.174737 
L 322.511278 253.174737 
L 322.930827 252.757895 
L 323.350376 252.341053 
L 324.189474 252.341053 
L 325.028571 252.341053 
L 325.44812 251.924211 
L 325.867669 251.507368 
L 326.706767 251.507368 
L 327.545865 251.507368 
L 327.965414 251.090526 
L 328.384962 250.673684 
L 329.22406 250.673684 
L 330.063158 250.673684 
L 330.482707 250.256842 
L 330.902256 249.84 
L 331.741353 249.84 
L 332.580451 249.84 
L 333 249.423158 
L 333.419549 249.006316 
L 334.258647 249.006316 
L 334.678195 248.589474 
L 335.097744 248.172632 
L 335.936842 248.172632 
L 336.77594 248.172632 
L 337.195489 247.755789 
L 337.615038 247.338947 
L 338.454135 247.338947 
L 338.873684 246.922105 
L 339.293233 246.505263 
L 340.132331 246.505263 
L 340.971429 246.505263 
L 341.390977 246.088421 
L 341.810526 245.671579 
L 342.649624 245.671579 
L 343.069173 245.254737 
L 343.488722 244.837895 
L 344.32782 244.837895 
L 344.747368 244.421053 
L 345.166917 244.004211 
L 346.006015 244.004211 
L 346.425564 243.587368 
L 346.845113 243.170526 
L 347.684211 243.170526 
L 348.523308 243.170526 
L 348.942857 242.753684 
L 349.362406 242.336842 
L 350.201504 242.336842 
L 350.621053 241.92 
L 351.040602 241.503158 
L 351.879699 241.503158 
L 352.299248 241.086316 
L 352.718797 240.669474 
L 353.557895 240.669474 
L 353.977444 240.252632 
L 354.396992 239.835789 
L 354.816541 239.418947 
L 355.23609 239.002105 
L 356.075188 239.002105 
L 356.494737 238.585263 
L 356.914286 238.168421 
L 357.753383 238.168421 
L 358.172932 237.751579 
L 358.592481 237.334737 
L 359.431579 237.334737 
L 359.851128 236.917895 
L 360.270677 236.501053 
L 361.109774 236.501053 
L 361.529323 236.084211 
L 361.948872 235.667368 
L 362.78797 235.667368 
L 363.207519 235.250526 
L 363.627068 234.833684 
L 364.046617 234.416842 
L 364.466165 234 
L 365.305263 234 
L 365.724812 233.583158 
L 366.144361 233.166316 
L 366.983459 233.166316 
L 367.403008 232.749474 
L 367.822556 232.332632 
L 368.242105 231.915789 
L 368.661654 231.498947 
L 369.500752 231.498947 
L 369.920301 231.082105 
L 370.33985 230.665263 
L 371.178947 230.665263 
L 371.598496 230.248421 
L 372.018045 229.831579 
L 372.437594 229.414737 
L 372.857143 228.997895 
L 373.696241 228.997895 
L 374.115789 228.581053 
L 374.535338 228.164211 
L 374.954887 227.747368 
L 375.374436 227.330526 
L 376.213534 227.330526 
L 376.633083 226.913684 
L 377.052632 226.496842 
L 377.47218 226.08 
L 377.891729 225.663158 
L 378.730827 225.663158 
L 379.150376 225.246316 
L 379.569925 224.829474 
L 379.989474 224.412632 
L 380.409023 223.995789 
L 381.24812 223.995789 
L 381.667669 223.578947 
L 382.087218 223.162105 
L 382.506767 222.745263 
L 382.926316 222.328421 
L 383.345865 221.911579 
L 383.765414 221.494737 
L 384.604511 221.494737 
L 385.02406 221.077895 
L 385.443609 220.661053 
L 385.863158 220.244211 
L 386.282707 219.827368 
L 386.702256 219.410526 
L 387.121805 218.993684 
L 387.960902 218.993684 
L 388.380451 218.576842 
L 388.8 218.16 
L 388.8 217.743158 
L 388.8 216.909474 
L 388.8 216.075789 
L 388.8 215.242105 
L 388.8 214.408421 
L 388.8 213.574737 
L 388.8 212.741053 
L 388.8 211.907368 
L 388.8 211.073684 
L 388.8 210.24 
L 388.8 209.406316 
L 388.8 208.572632 
L 388.8 207.738947 
L 388.8 206.905263 
L 388.8 206.071579 
L 388.8 205.237895 
L 388.8 204.404211 
L 388.8 203.570526 
L 388.8 202.736842 
L 388.8 201.903158 
L 388.8 201.069474 
L 388.8 200.235789 
L 388.8 199.402105 
L 388.8 198.568421 
L 388.8 197.734737 
L 388.8 196.901053 
L 388.8 196.067368 
L 388.8 195.233684 
L 388.8 194.4 
L 388.8 193.566316 
L 388.8 192.732632 
L 388.8 191.898947 
L 388.8 191.065263 
L 388.8 190.231579 
L 388.8 189.397895 
L 388.8 188.564211 
L 388.8 187.730526 
L 388.8 186.896842 
L 388.8 186.063158 
L 388.8 185.229474 
L 388.8 184.395789 
L 388.8 183.562105 
L 388.8 182.728421 
L 388.8 181.894737 
L 388.8 181.061053 
L 388.8 180.227368 
L 388.8 179.393684 
L 388.8 178.56 
L 388.8 177.726316 
L 388.8 176.892632 
L 388.8 176.058947 
L 388.8 175.225263 
L 388.8 174.391579 
L 388.8 173.557895 
L 388.8 172.724211 
L 388.8 171.890526 
L 388.8 171.056842 
L 388.8 170.223158 
L 388.8 169.389474 
L 388.8 168.555789 
L 388.8 167.722105 
L 388.8 166.888421 
L 388.8 166.054737 
L 388.8 165.221053 
L 388.8 164.387368 
L 388.8 163.553684 
L 388.8 162.72 
L 388.8 161.886316 
L 388.8 161.052632 
L 388.8 160.218947 
L 388.8 159.385263 
L 388.8 158.551579 
L 388.8 157.717895 
L 388.8 156.884211 
L 388.8 156.050526 
L 388.8 155.216842 
L 388.8 154.383158 
L 388.8 153.549474 
L 388.8 152.715789 
L 388.8 151.882105 
L 388.8 151.048421 
L 388.8 150.214737 
L 388.8 149.381053 
L 388.8 148.547368 
L 388.8 147.713684 
L 388.8 146.88 
L 388.8 146.046316 
L 388.8 145.212632 
L 388.8 144.378947 
L 388.8 143.545263 
L 388.8 142.711579 
L 388.8 141.877895 
L 388.8 141.044211 
L 388.8 140.210526 
L 388.8 139.376842 
L 388.8 138.543158 
L 388.8 137.709474 
L 388.8 136.875789 
L 388.8 136.042105 
L 388.8 135.208421 
L 388.8 134.374737 
L 388.8 133.541053 
L 388.8 132.707368 
L 388.8 131.873684 
L 388.8 131.04 
L 388.8 130.206316 
L 388.8 129.372632 
L 388.8 128.538947 
L 388.8 127.705263 
L 388.8 126.871579 
L 388.8 126.037895 
L 388.8 125.204211 
L 388.8 124.370526 
L 388.8 123.536842 
L 388.8 122.703158 
L 388.8 121.869474 
L 388.8 121.035789 
L 388.8 120.202105 
L 388.8 119.368421 
L 388.8 118.534737 
L 388.8 117.701053 
L 388.8 116.867368 
L 388.8 116.033684 
L 388.8 115.2 
L 388.8 114.366316 
L 388.8 113.532632 
L 388.8 112.698947 
L 388.8 111.865263 
L 388.8 111.031579 
L 388.8 110.197895 
L 388.8 109.364211 
L 388.8 108.530526 
L 388.8 107.696842 
L 388.8 106.863158 
L 388.8 106.029474 
L 388.8 105.195789 
L 388.8 104.362105 
L 388.8 103.528421 
L 388.8 102.694737 
L 388.8 101.861053 
L 388.8 101.027368 
L 388.8 100.193684 
L 388.8 99.36 
L 388.8 98.526316 
L 388.8 97.692632 
L 388.8 96.858947 
L 388.8 96.025263 
L 388.8 95.191579 
L 388.8 94.357895 
L 388.8 93.524211 
L 388.8 92.690526 
L 388.8 91.856842 
L 388.8 91.023158 
L 388.8 90.189474 
L 388.8 89.355789 
L 388.8 88.522105 
L 388.8 87.688421 
L 388.8 86.854737 
L 388.8 86.021053 
L 388.8 85.187368 
L 388.8 84.353684 
L 388.8 83.52 
L 388.8 82.686316 
L 388.8 81.852632 
L 388.8 81.018947 
L 388.8 80.185263 
L 388.8 79.351579 
L 388.8 78.517895 
L 388.8 77.684211 
L 388.8 76.850526 
L 388.8 76.016842 
L 388.8 75.183158 
L 388.8 74.349474 
L 388.8 73.515789 
L 388.8 72.682105 
L 388.8 71.848421 
L 388.8 71.014737 
L 388.8 70.181053 
L 388.8 69.347368 
L 388.8 68.513684 
L 388.8 67.68 
L 388.8 66.846316 
L 388.8 66.012632 
L 388.8 65.178947 
L 388.8 64.345263 
L 388.8 63.511579 
L 388.8 62.677895 
L 388.8 61.844211 
L 388.8 61.010526 
L 388.8 60.176842 
L 388.8 59.343158 
L 388.8 58.509474 
L 388.8 57.675789 
L 388.8 56.842105 
L 388.8 56.008421 
L 388.8 55.174737 
L 388.8 54.341053 
L 388.8 53.507368 
L 388.8 52.673684 
L 388.8 51.84 
L 387.960902 51.84 
L 387.121805 51.84 
L 386.282707 51.84 
L 385.443609 51.84 
L 384.604511 51.84 
L 383.765414 51.84 
L 382.926316 51.84 
L 382.087218 51.84 
L 381.24812 51.84 
L 380.409023 51.84 
L 379.569925 51.84 
L 378.730827 51.84 
L 377.891729 51.84 
L 377.052632 51.84 
L 376.213534 51.84 
L 375.374436 51.84 
L 374.535338 51.84 
L 373.696241 51.84 
L 372.857143 51.84 
L 372.018045 51.84 
L 371.178947 51.84 
L 370.33985 51.84 
L 369.500752 51.84 
L 368.661654 51.84 
L 367.822556 51.84 
L 366.983459 51.84 
L 366.144361 51.84 
L 365.305263 51.84 
L 364.466165 51.84 
L 363.627068 51.84 
L 362.78797 51.84 
L 361.948872 51.84 
L 361.109774 51.84 
L 360.270677 51.84 
L 359.431579 51.84 
L 358.592481 51.84 
L 357.753383 51.84 
L 356.914286 51.84 
L 356.075188 51.84 
L 355.23609 51.84 
L 354.396992 51.84 
L 353.557895 51.84 
L 352.718797 51.84 
L 351.879699 51.84 
L 351.040602 51.84 
L 350.201504 51.84 
L 349.362406 51.84 
L 348.523308 51.84 
L 347.684211 51.84 
L 346.845113 51.84 
L 346.006015 51.84 
L 345.166917 51.84 
L 344.32782 51.84 
L 343.488722 51.84 
L 342.649624 51.84 
L 341.810526 51.84 
L 340.971429 51.84 
L 340.132331 51.84 
L 339.293233 51.84 
L 338.454135 51.84 
L 337.615038 51.84 
L 336.77594 51.84 
L 335.936842 51.84 
L 335.097744 51.84 
L 334.258647 51.84 
L 333.419549 51.84 
L 332.580451 51.84 
L 331.741353 51.84 
L 330.902256 51.84 
L 330.063158 51.84 
L 329.22406 51.84 
L 328.384962 51.84 
L 327.545865 51.84 
L 326.706767 51.84 
L 325.867669 51.84 
L 325.028571 51.84 
L 324.189474 51.84 
L 323.350376 51.84 
L 322.511278 51.84 
L 321.67218 51.84 
L 320.833083 51.84 
L 319.993985 51.84 
L 319.154887 51.84 
L 318.315789 51.84 
L 317.476692 51.84 
L 316.637594 51.84 
L 315.798496 51.84 
L 314.959398 51.84 
L 314.120301 51.84 
L 313.281203 51.84 
L 312.442105 51.84 
L 311.603008 51.84 
L 310.76391 51.84 
L 309.924812 51.84 
L 309.085714 51.84 
L 308.246617 51.84 
L 307.407519 51.84 
L 306.568421 51.84 
L 305.729323 51.84 
L 304.890226 51.84 
L 304.051128 51.84 
L 303.21203 51.84 
L 302.372932 51.84 
L 301.533835 51.84 
L 300.694737 51.84 
L 299.855639 51.84 
L 299.016541 51.84 
L 298.177444 51.84 
L 297.338346 51.84 
L 296.499248 51.84 
L 295.66015 51.84 
L 294.821053 51.84 
L 293.981955 51.84 
L 293.142857 51.84 
L 292.303759 51.84 
L 291.464662 51.84 
L 290.625564 51.84 
L 289.786466 51.84 
L 288.947368 51.84 
L 288.108271 51.84 
L 287.269173 51.84 
L 286.430075 51.84 
L 285.590977 51.84 
L 284.75188 51.84 
L 283.912782 51.84 
L 283.073684 51.84 
L 282.234586 51.84 
L 281.395489 51.84 
L 280.556391 51.84 
L 279.717293 51.84 
L 278.878195 51.84 
L 278.039098 51.84 
L 277.2 51.84 
L 276.780451 51.84 
L 276.780451 52.673684 
L 276.780451 53.507368 
L 276.780451 54.341053 
L 276.780451 55.174737 
L 276.780451 56.008421 
L 276.780451 56.842105 
L 276.780451 57.675789 
L 276.780451 58.509474 
L 276.780451 59.343158 
L 276.780451 60.176842 
L 276.780451 61.010526 
L 276.780451 61.844211 
L 276.780451 62.677895 
L 276.780451 63.511579 
L 276.780451 64.345263 
L 276.780451 65.178947 
L 276.780451 66.012632 
L 276.780451 66.846316 
L 276.780451 67.68 
L 276.780451 68.513684 
L 276.780451 69.347368 
L 276.780451 70.181053 
L 276.780451 71.014737 
L 276.780451 71.848421 
L 276.780451 72.682105 
L 276.780451 73.515789 
L 276.780451 74.349474 
L 276.780451 75.183158 
L 276.780451 76.016842 
L 276.780451 76.850526 
L 276.780451 77.684211 
L 276.780451 78.517895 
L 276.780451 79.351579 
L 276.780451 80.185263 
L 276.780451 81.018947 
L 276.780451 81.852632 
L 276.780451 82.686316 
L 276.780451 83.52 
L 276.780451 84.353684 
L 276.780451 85.187368 
L 276.780451 86.021053 
L 276.780451 86.854737 
L 276.780451 87.688421 
L 276.780451 88.522105 
L 276.780451 89.355789 
L 276.780451 90.189474 
L 276.780451 91.023158 
L 276.780451 91.856842 
L 276.780451 92.690526 
L 276.780451 93.524211 
L 276.780451 94.357895 
L 276.780451 95.191579 
L 276.780451 96.025263 
L 276.780451 96.858947 
L 276.780451 97.692632 
L 276.780451 98.526316 
L 276.780451 99.36 
L 276.780451 100.193684 
L 276.780451 101.027368 
L 276.780451 101.861053 
L 276.780451 102.694737 
L 276.780451 103.528421 
L 276.780451 104.362105 
L 276.780451 105.195789 
L 276.780451 106.029474 
L 276.780451 106.863158 
L 276.780451 107.696842 
L 276.780451 108.530526 
L 276.780451 109.364211 
L 276.780451 110.197895 
L 276.780451 111.031579 
L 276.780451 111.865263 
L 276.780451 112.698947 
L 276.780451 113.532632 
L 276.780451 114.366316 
L 276.780451 115.2 
L 276.780451 116.033684 
L 276.780451 116.867368 
L 276.780451 117.701053 
L 276.780451 118.534737 
L 276.780451 119.368421 
L 276.780451 120.202105 
L 276.780451 121.035789 
L 276.780451 121.869474 
L 276.780451 122.703158 
L 276.780451 123.536842 
L 276.780451 124.370526 
L 276.780451 125.204211 
L 276.780451 126.037895 
L 276.780451 126.871579 
L 276.780451 127.705263 
L 276.780451 128.538947 
L 276.780451 129.372632 
L 276.780451 130.206316 
L 276.780451 131.04 
L 276.780451 131.873684 
L 276.780451 132.707368 
L 276.780451 133.541053 
L 276.780451 134.374737 
L 276.780451 135.208421 
L 276.780451 136.042105 
L 276.780451 136.875789 
L 276.780451 137.709474 
L 276.780451 138.543158 
L 276.780451 139.376842 
L 276.780451 140.210526 
L 276.780451 141.044211 
L 276.780451 141.877895 
L 276.780451 142.711579 
L 276.780451 143.545263 
L 276.780451 144.378947 
L 276.780451 145.212632 
L 276.780451 146.046316 
L 276.780451 146.88 
L 276.780451 147.713684 
L 276.780451 148.547368 
L 276.780451 149.381053 
L 276.780451 150.214737 
L 276.780451 151.048421 
L 276.780451 151.882105 
L 276.780451 152.715789 
L 276.780451 153.549474 
L 276.780451 154.383158 
L 276.780451 155.216842 
L 276.780451 156.050526 
L 276.780451 156.884211 
L 276.780451 157.717895 
L 276.780451 158.551579 
L 276.780451 159.385263 
L 276.780451 160.218947 
L 276.780451 161.052632 
L 276.780451 161.886316 
L 276.780451 162.72 
L 276.780451 163.553684 
L 276.780451 164.387368 
L 276.780451 165.221053 
L 276.780451 166.054737 
L 276.780451 166.888421 
L 276.780451 167.722105 
L 276.780451 168.555789 
L 276.780451 169.389474 
L 276.780451 170.223158 
L 276.780451 171.056842 
L 276.780451 171.890526 
L 276.780451 172.724211 
L 276.780451 173.557895 
L 276.780451 174.391579 
L 276.780451 175.225263 
L 276.780451 176.058947 
L 276.780451 176.892632 
L 276.780451 177.726316 
L 276.780451 178.56 
L 276.780451 179.393684 
L 276.780451 180.227368 
L 276.780451 181.061053 
L 276.780451 181.894737 
L 276.780451 182.728421 
L 276.780451 183.562105 
L 276.780451 184.395789 
L 276.780451 185.229474 
L 276.780451 186.063158 
L 276.780451 186.896842 
L 276.780451 187.730526 
L 276.780451 188.564211 
L 276.780451 189.397895 
L 276.780451 190.231579 
L 276.780451 191.065263 
L 276.780451 191.898947 
L 276.780451 192.732632 
L 276.780451 193.566316 
L 276.780451 194.4 
L 276.780451 195.233684 
L 276.780451 196.067368 
L 276.780451 196.901053 
L 276.780451 197.734737 
L 276.780451 198.568421 
L 276.780451 199.402105 
L 276.780451 200.235789 
L 276.780451 201.069474 
L 276.780451 201.903158 
L 276.780451 202.736842 
L 276.780451 203.570526 
L 276.780451 204.404211 
L 276.780451 205.237895 
L 276.780451 206.071579 
L 276.780451 206.905263 
L 276.780451 207.738947 
L 276.780451 208.572632 
L 276.780451 209.406316 
L 276.780451 210.24 
L 276.780451 211.073684 
L 276.780451 211.907368 
L 276.780451 212.741053 
L 276.780451 213.574737 
L 276.780451 214.408421 
L 276.780451 215.242105 
L 276.780451 216.075789 
L 276.780451 216.909474 
L 276.780451 217.743158 
L 276.780451 218.576842 
L 276.780451 219.410526 
L 276.780451 220.244211 
L 276.780451 221.077895 
L 276.780451 221.911579 
L 276.780451 222.745263 
L 276.780451 223.578947 
L 276.780451 224.412632 
L 276.780451 225.246316 
L 276.780451 226.08 
L 276.780451 226.913684 
L 276.780451 227.747368 
L 276.780451 228.581053 
L 276.780451 229.414737 
L 276.780451 230.248421 
L 276.780451 231.082105 
L 276.780451 231.915789 
L 276.780451 232.749474 
L 276.780451 233.583158 
L 276.780451 234.416842 
L 276.780451 235.250526 
L 276.780451 236.084211 
L 276.780451 236.917895 
L 276.780451 237.751579 
L 276.780451 238.585263 
L 276.780451 239.418947 
L 276.780451 240.252632 
L 276.780451 241.086316 
L 276.780451 241.92 
L 276.780451 242.753684 
L 276.780451 243.587368 
L 276.780451 244.421053 
L 276.780451 245.254737 
L 276.780451 246.088421 
L 276.780451 246.922105 
L 276.780451 247.755789 
L 276.780451 248.589474 
L 276.780451 249.423158 
L 276.780451 250.256842 
L 276.780451 251.090526 
L 276.780451 251.924211 
L 276.780451 252.757895 
L 276.780451 253.591579 
L 276.780451 254.425263 
L 276.780451 255.258947 
L 276.780451 256.092632 
L 276.780451 256.926316 
L 276.780451 257.76 
L 276.780451 258.593684 
L 276.780451 259.427368 
z
" clip-path="url(#p942cbe35d3)" style="fill: #add8e6; fill-opacity: 0.6"/>
   </g>
   <g id="PathCollection_2">
    <defs>
     <path id="mc5bd1ba166" d="M -5 5 
L 5 -5 
M -5 -5 
L 5 5 
" style="stroke: #ff0000; stroke-width: 1.5"/>
    </defs>
    <g clip-path="url(#p942cbe35d3)">
     <use xlink:href="#mc5bd1ba166" x="277.2" y="259.74" style="fill: #ff0000; stroke: #ff0000; stroke-width: 1.5"/>
    </g>
   </g>
   <g id="PathCollection_3">
    <defs>
     <path id="m508b3aa8d1" d="M -5 5 
L 5 -5 
M -5 -5 
L 5 5 
" style="stroke: #800080; stroke-width: 1.5"/>
    </defs>
    <g clip-path="url(#p942cbe35d3)">
     <use xlink:href="#m508b3aa8d1" x="165.6" y="342.9" style="fill: #800080; stroke: #800080; stroke-width: 1.5"/>
    </g>
   </g>
   <g id="matplotlib.axis_1">
    <g id="xtick_1">
     <g id="line2d_1">
      <path d="M 54 384.48 
L 54 51.84 
" clip-path="url(#p942cbe35d3)" style="fill: none; stroke-dasharray: 2.22,0.96; stroke-dashoffset: 0; stroke: #b0b0b0; stroke-opacity: 0.7; stroke-width: 0.6"/>
     </g>
     <g id="line2d_2">
      <defs>
       <path id="mfcb0cf6812" d="M 0 0 
L 0 -3.5 
" style="stroke: #1a1a1a; stroke-width: 0.8"/>
      </defs>
      <g>
       <use xlink:href="#mfcb0cf6812" x="54" y="384.48" style="fill: #1a1a1a; stroke: #1a1a1a; stroke-width: 0.8"/>
      </g>
     </g>
     <g id="text_1">
      <!-- −2.0 -->
      <g style="fill: #1a1a1a" transform="translate(39.430312 397.098125) scale(0.12 -0.12)">
       <defs>
        <path id="DejaVuSans-2212" d="M 678 2272 
L 4684 2272 
L 4684 1741 
L 678 1741 
L 678 2272 
z
" transform="scale(0.015625)"/>
        <path id="DejaVuSans-32" d="M 1228 531 
L 3431 531 
L 3431 0 
L 469 0 
L 469 531 
Q 828 903 1448 1529 
Q 2069 2156 2228 2338 
Q 2531 2678 2651 2914 
Q 2772 3150 2772 3378 
Q 2772 3750 2511 3984 
Q 2250 4219 1831 4219 
Q 1534 4219 1204 4116 
Q 875 4013 500 3803 
L 500 4441 
Q 881 4594 1212 4672 
Q 1544 4750 1819 4750 
Q 2544 4750 2975 4387 
Q 3406 4025 3406 3419 
Q 3406 3131 3298 2873 
Q 3191 2616 2906 2266 
Q 2828 2175 2409 1742 
Q 1991 1309 1228 531 
z
" transform="scale(0.015625)"/>
        <path id="DejaVuSans-2e" d="M 684 794 
L 1344 794 
L 1344 0 
L 684 0 
L 684 794 
z
" transform="scale(0.015625)"/>
        <path id="DejaVuSans-30" d="M 2034 4250 
Q 1547 4250 1301 3770 
Q 1056 3291 1056 2328 
Q 1056 1369 1301 889 
Q 1547 409 2034 409 
Q 2525 409 2770 889 
Q 3016 1369 3016 2328 
Q 3016 3291 2770 3770 
Q 2525 4250 2034 4250 
z
M 2034 4750 
Q 2819 4750 3233 4129 
Q 3647 3509 3647 2328 
Q 3647 1150 3233 529 
Q 2819 -91 2034 -91 
Q 1250 -91 836 529 
Q 422 1150 422 2328 
Q 422 3509 836 4129 
Q 1250 4750 2034 4750 
z
" transform="scale(0.015625)"/>
       </defs>
       <use xlink:href="#DejaVuSans-2212"/>
       <use xlink:href="#DejaVuSans-32" x="83.789062"/>
       <use xlink:href="#DejaVuSans-2e" x="147.412109"/>
       <use xlink:href="#DejaVuSans-30" x="179.199219"/>
      </g>
     </g>
    </g>
    <g id="xtick_2">
     <g id="line2d_3">
      <path d="M 109.8 384.48 
L 109.8 51.84 
" clip-path="url(#p942cbe35d3)" style="fill: none; stroke-dasharray: 2.22,0.96; stroke-dashoffset: 0; stroke: #b0b0b0; stroke-opacity: 0.7; stroke-width: 0.6"/>
     </g>
     <g id="line2d_4">
      <g>
       <use xlink:href="#mfcb0cf6812" x="109.8" y="384.48" style="fill: #1a1a1a; stroke: #1a1a1a; stroke-width: 0.8"/>
      </g>
     </g>
     <g id="text_2">
      <!-- −1.5 -->
      <g style="fill: #1a1a1a" transform="translate(95.230313 397.098125) scale(0.12 -0.12)">
       <defs>
        <path id="DejaVuSans-31" d="M 794 531 
L 1825 531 
L 1825 4091 
L 703 3866 
L 703 4441 
L 1819 4666 
L 2450 4666 
L 2450 531 
L 3481 531 
L 3481 0 
L 794 0 
L 794 531 
z
" transform="scale(0.015625)"/>
        <path id="DejaVuSans-35" d="M 691 4666 
L 3169 4666 
L 3169 4134 
L 1269 4134 
L 1269 2991 
Q 1406 3038 1543 3061 
Q 1681 3084 1819 3084 
Q 2600 3084 3056 2656 
Q 3513 2228 3513 1497 
Q 3513 744 3044 326 
Q 2575 -91 1722 -91 
Q 1428 -91 1123 -41 
Q 819 9 494 109 
L 494 744 
Q 775 591 1075 516 
Q 1375 441 1709 441 
Q 2250 441 2565 725 
Q 2881 1009 2881 1497 
Q 2881 1984 2565 2268 
Q 2250 2553 1709 2553 
Q 1456 2553 1204 2497 
Q 953 2441 691 2322 
L 691 4666 
z
" transform="scale(0.015625)"/>
       </defs>
       <use xlink:href="#DejaVuSans-2212"/>
       <use xlink:href="#DejaVuSans-31" x="83.789062"/>
       <use xlink:href="#DejaVuSans-2e" x="147.412109"/>
       <use xlink:href="#DejaVuSans-35" x="179.199219"/>
      </g>
     </g>
    </g>
    <g id="xtick_3">
     <g id="line2d_5">
      <path d="M 165.6 384.48 
L 165.6 51.84 
" clip-path="url(#p942cbe35d3)" style="fill: none; stroke-dasharray: 2.22,0.96; stroke-dashoffset: 0; stroke: #b0b0b0; stroke-opacity: 0.7; stroke-width: 0.6"/>
     </g>
     <g id="line2d_6">
      <g>
       <use xlink:href="#mfcb0cf6812" x="165.6" y="384.48" style="fill: #1a1a1a; stroke: #1a1a1a; stroke-width: 0.8"/>
      </g>
     </g>
     <g id="text_3">
      <!-- −1.0 -->
      <g style="fill: #1a1a1a" transform="translate(151.030313 397.098125) scale(0.12 -0.12)">
       <use xlink:href="#DejaVuSans-2212"/>
       <use xlink:href="#DejaVuSans-31" x="83.789062"/>
       <use xlink:href="#DejaVuSans-2e" x="147.412109"/>
       <use xlink:href="#DejaVuSans-30" x="179.199219"/>
      </g>
     </g>
    </g>
    <g id="xtick_4">
     <g id="line2d_7">
      <path d="M 221.4 384.48 
L 221.4 51.84 
" clip-path="url(#p942cbe35d3)" style="fill: none; stroke-dasharray: 2.22,0.96; stroke-dashoffset: 0; stroke: #b0b0b0; stroke-opacity: 0.7; stroke-width: 0.6"/>
     </g>
     <g id="line2d_8">
      <g>
       <use xlink:href="#mfcb0cf6812" x="221.4" y="384.48" style="fill: #1a1a1a; stroke: #1a1a1a; stroke-width: 0.8"/>
      </g>
     </g>
     <g id="text_4">
      <!-- −0.5 -->
      <g style="fill: #1a1a1a" transform="translate(206.830312 397.098125) scale(0.12 -0.12)">
       <use xlink:href="#DejaVuSans-2212"/>
       <use xlink:href="#DejaVuSans-30" x="83.789062"/>
       <use xlink:href="#DejaVuSans-2e" x="147.412109"/>
       <use xlink:href="#DejaVuSans-35" x="179.199219"/>
      </g>
     </g>
    </g>
    <g id="xtick_5">
     <g id="line2d_9">
      <path d="M 277.2 384.48 
L 277.2 51.84 
" clip-path="url(#p942cbe35d3)" style="fill: none; stroke-dasharray: 2.22,0.96; stroke-dashoffset: 0; stroke: #b0b0b0; stroke-opacity: 0.7; stroke-width: 0.6"/>
     </g>
     <g id="line2d_10">
      <g>
       <use xlink:href="#mfcb0cf6812" x="277.2" y="384.48" style="fill: #1a1a1a; stroke: #1a1a1a; stroke-width: 0.8"/>
      </g>
     </g>
     <g id="text_5">
      <!-- 0.0 -->
      <g style="fill: #1a1a1a" transform="translate(267.658125 397.098125) scale(0.12 -0.12)">
       <use xlink:href="#DejaVuSans-30"/>
       <use xlink:href="#DejaVuSans-2e" x="63.623047"/>
       <use xlink:href="#DejaVuSans-30" x="95.410156"/>
      </g>
     </g>
    </g>
    <g id="xtick_6">
     <g id="line2d_11">
      <path d="M 333 384.48 
L 333 51.84 
" clip-path="url(#p942cbe35d3)" style="fill: none; stroke-dasharray: 2.22,0.96; stroke-dashoffset: 0; stroke: #b0b0b0; stroke-opacity: 0.7; stroke-width: 0.6"/>
     </g>
     <g id="line2d_12">
      <g>
       <use xlink:href="#mfcb0cf6812" x="333" y="384.48" style="fill: #1a1a1a; stroke: #1a1a1a; stroke-width: 0.8"/>
      </g>
     </g>
     <g id="text_6">
      <!-- 0.5 -->
      <g style="fill: #1a1a1a" transform="translate(323.458125 397.098125) scale(0.12 -0.12)">
       <use xlink:href="#DejaVuSans-30"/>
       <use xlink:href="#DejaVuSans-2e" x="63.623047"/>
       <use xlink:href="#DejaVuSans-35" x="95.410156"/>
      </g>
     </g>
    </g>
    <g id="xtick_7">
     <g id="line2d_13">
      <path d="M 388.8 384.48 
L 388.8 51.84 
" clip-path="url(#p942cbe35d3)" style="fill: none; stroke-dasharray: 2.22,0.96; stroke-dashoffset: 0; stroke: #b0b0b0; stroke-opacity: 0.7; stroke-width: 0.6"/>
     </g>
     <g id="line2d_14">
      <g>
       <use xlink:href="#mfcb0cf6812" x="388.8" y="384.48" style="fill: #1a1a1a; stroke: #1a1a1a; stroke-width: 0.8"/>
      </g>
     </g>
     <g id="text_7">
      <!-- 1.0 -->
      <g style="fill: #1a1a1a" transform="translate(379.258125 397.098125) scale(0.12 -0.12)">
       <use xlink:href="#DejaVuSans-31"/>
       <use xlink:href="#DejaVuSans-2e" x="63.623047"/>
       <use xlink:href="#DejaVuSans-30" x="95.410156"/>
      </g>
     </g>
    </g>
    <g id="text_8">
     <!-- $x$ -->
     <g style="fill: #1a1a1a" transform="translate(217.8 412.711875) scale(0.12 -0.12)">
      <defs>
       <path id="DejaVuSans-Oblique-78" d="M 3841 3500 
L 2234 1784 
L 3219 0 
L 2559 0 
L 1819 1388 
L 531 0 
L -166 0 
L 1556 1844 
L 641 3500 
L 1300 3500 
L 1972 2234 
L 3144 3500 
L 3841 3500 
z
" transform="scale(0.015625)"/>
      </defs>
      <use xlink:href="#DejaVuSans-Oblique-78" transform="translate(0 0.3125)"/>
     </g>
    </g>
   </g>
   <g id="matplotlib.axis_2">
    <g id="ytick_1">
     <g id="line2d_15">
      <path d="M 54 384.48 
L 388.8 384.48 
" clip-path="url(#p942cbe35d3)" style="fill: none; stroke-dasharray: 2.22,0.96; stroke-dashoffset: 0; stroke: #b0b0b0; stroke-opacity: 0.7; stroke-width: 0.6"/>
     </g>
     <g id="line2d_16">
      <defs>
       <path id="m640cffc1f2" d="M 0 0 
L 3.5 0 
" style="stroke: #1a1a1a; stroke-width: 0.8"/>
      </defs>
      <g>
       <use xlink:href="#m640cffc1f2" x="54" y="384.48" style="fill: #1a1a1a; stroke: #1a1a1a; stroke-width: 0.8"/>
      </g>
     </g>
     <g id="text_9">
      <!-- −3 -->
      <g style="fill: #1a1a1a" transform="translate(32.809375 389.039062) scale(0.12 -0.12)">
       <defs>
        <path id="DejaVuSans-33" d="M 2597 2516 
Q 3050 2419 3304 2112 
Q 3559 1806 3559 1356 
Q 3559 666 3084 287 
Q 2609 -91 1734 -91 
Q 1441 -91 1130 -33 
Q 819 25 488 141 
L 488 750 
Q 750 597 1062 519 
Q 1375 441 1716 441 
Q 2309 441 2620 675 
Q 2931 909 2931 1356 
Q 2931 1769 2642 2001 
Q 2353 2234 1838 2234 
L 1294 2234 
L 1294 2753 
L 1863 2753 
Q 2328 2753 2575 2939 
Q 2822 3125 2822 3475 
Q 2822 3834 2567 4026 
Q 2313 4219 1838 4219 
Q 1578 4219 1281 4162 
Q 984 4106 628 3988 
L 628 4550 
Q 988 4650 1302 4700 
Q 1616 4750 1894 4750 
Q 2613 4750 3031 4423 
Q 3450 4097 3450 3541 
Q 3450 3153 3228 2886 
Q 3006 2619 2597 2516 
z
" transform="scale(0.015625)"/>
       </defs>
       <use xlink:href="#DejaVuSans-2212"/>
       <use xlink:href="#DejaVuSans-33" x="83.789062"/>
      </g>
     </g>
    </g>
    <g id="ytick_2">
     <g id="line2d_17">
      <path d="M 54 342.9 
L 388.8 342.9 
" clip-path="url(#p942cbe35d3)" style="fill: none; stroke-dasharray: 2.22,0.96; stroke-dashoffset: 0; stroke: #b0b0b0; stroke-opacity: 0.7; stroke-width: 0.6"/>
     </g>
     <g id="line2d_18">
      <g>
       <use xlink:href="#m640cffc1f2" x="54" y="342.9" style="fill: #1a1a1a; stroke: #1a1a1a; stroke-width: 0.8"/>
      </g>
     </g>
     <g id="text_10">
      <!-- −2 -->
      <g style="fill: #1a1a1a" transform="translate(32.809375 347.459063) scale(0.12 -0.12)">
       <use xlink:href="#DejaVuSans-2212"/>
       <use xlink:href="#DejaVuSans-32" x="83.789062"/>
      </g>
     </g>
    </g>
    <g id="ytick_3">
     <g id="line2d_19">
      <path d="M 54 301.32 
L 388.8 301.32 
" clip-path="url(#p942cbe35d3)" style="fill: none; stroke-dasharray: 2.22,0.96; stroke-dashoffset: 0; stroke: #b0b0b0; stroke-opacity: 0.7; stroke-width: 0.6"/>
     </g>
     <g id="line2d_20">
      <g>
       <use xlink:href="#m640cffc1f2" x="54" y="301.32" style="fill: #1a1a1a; stroke: #1a1a1a; stroke-width: 0.8"/>
      </g>
     </g>
     <g id="text_11">
      <!-- −1 -->
      <g style="fill: #1a1a1a" transform="translate(32.809375 305.879063) scale(0.12 -0.12)">
       <use xlink:href="#DejaVuSans-2212"/>
       <use xlink:href="#DejaVuSans-31" x="83.789062"/>
      </g>
     </g>
    </g>
    <g id="ytick_4">
     <g id="line2d_21">
      <path d="M 54 259.74 
L 388.8 259.74 
" clip-path="url(#p942cbe35d3)" style="fill: none; stroke-dasharray: 2.22,0.96; stroke-dashoffset: 0; stroke: #b0b0b0; stroke-opacity: 0.7; stroke-width: 0.6"/>
     </g>
     <g id="line2d_22">
      <g>
       <use xlink:href="#m640cffc1f2" x="54" y="259.74" style="fill: #1a1a1a; stroke: #1a1a1a; stroke-width: 0.8"/>
      </g>
     </g>
     <g id="text_12">
      <!-- 0 -->
      <g style="fill: #1a1a1a" transform="translate(42.865 264.299062) scale(0.12 -0.12)">
       <use xlink:href="#DejaVuSans-30"/>
      </g>
     </g>
    </g>
    <g id="ytick_5">
     <g id="line2d_23">
      <path d="M 54 218.16 
L 388.8 218.16 
" clip-path="url(#p942cbe35d3)" style="fill: none; stroke-dasharray: 2.22,0.96; stroke-dashoffset: 0; stroke: #b0b0b0; stroke-opacity: 0.7; stroke-width: 0.6"/>
     </g>
     <g id="line2d_24">
      <g>
       <use xlink:href="#m640cffc1f2" x="54" y="218.16" style="fill: #1a1a1a; stroke: #1a1a1a; stroke-width: 0.8"/>
      </g>
     </g>
     <g id="text_13">
      <!-- 1 -->
      <g style="fill: #1a1a1a" transform="translate(42.865 222.719063) scale(0.12 -0.12)">
       <use xlink:href="#DejaVuSans-31"/>
      </g>
     </g>
    </g>
    <g id="ytick_6">
     <g id="line2d_25">
      <path d="M 54 176.58 
L 388.8 176.58 
" clip-path="url(#p942cbe35d3)" style="fill: none; stroke-dasharray: 2.22,0.96; stroke-dashoffset: 0; stroke: #b0b0b0; stroke-opacity: 0.7; stroke-width: 0.6"/>
     </g>
     <g id="line2d_26">
      <g>
       <use xlink:href="#m640cffc1f2" x="54" y="176.58" style="fill: #1a1a1a; stroke: #1a1a1a; stroke-width: 0.8"/>
      </g>
     </g>
     <g id="text_14">
      <!-- 2 -->
      <g style="fill: #1a1a1a" transform="translate(42.865 181.139062) scale(0.12 -0.12)">
       <use xlink:href="#DejaVuSans-32"/>
      </g>
     </g>
    </g>
    <g id="ytick_7">
     <g id="line2d_27">
      <path d="M 54 135 
L 388.8 135 
" clip-path="url(#p942cbe35d3)" style="fill: none; stroke-dasharray: 2.22,0.96; stroke-dashoffset: 0; stroke: #b0b0b0; stroke-opacity: 0.7; stroke-width: 0.6"/>
     </g>
     <g id="line2d_28">
      <g>
       <use xlink:href="#m640cffc1f2" x="54" y="135" style="fill: #1a1a1a; stroke: #1a1a1a; stroke-width: 0.8"/>
      </g>
     </g>
     <g id="text_15">
      <!-- 3 -->
      <g style="fill: #1a1a1a" transform="translate(42.865 139.559062) scale(0.12 -0.12)">
       <use xlink:href="#DejaVuSans-33"/>
      </g>
     </g>
    </g>
    <g id="ytick_8">
     <g id="line2d_29">
      <path d="M 54 93.42 
L 388.8 93.42 
" clip-path="url(#p942cbe35d3)" style="fill: none; stroke-dasharray: 2.22,0.96; stroke-dashoffset: 0; stroke: #b0b0b0; stroke-opacity: 0.7; stroke-width: 0.6"/>
     </g>
     <g id="line2d_30">
      <g>
       <use xlink:href="#m640cffc1f2" x="54" y="93.42" style="fill: #1a1a1a; stroke: #1a1a1a; stroke-width: 0.8"/>
      </g>
     </g>
     <g id="text_16">
      <!-- 4 -->
      <g style="fill: #1a1a1a" transform="translate(42.865 97.979062) scale(0.12 -0.12)">
       <defs>
        <path id="DejaVuSans-34" d="M 2419 4116 
L 825 1625 
L 2419 1625 
L 2419 4116 
z
M 2253 4666 
L 3047 4666 
L 3047 1625 
L 3713 1625 
L 3713 1100 
L 3047 1100 
L 3047 0 
L 2419 0 
L 2419 1100 
L 313 1100 
L 313 1709 
L 2253 4666 
z
" transform="scale(0.015625)"/>
       </defs>
       <use xlink:href="#DejaVuSans-34"/>
      </g>
     </g>
    </g>
    <g id="ytick_9">
     <g id="line2d_31">
      <path d="M 54 51.84 
L 388.8 51.84 
" clip-path="url(#p942cbe35d3)" style="fill: none; stroke-dasharray: 2.22,0.96; stroke-dashoffset: 0; stroke: #b0b0b0; stroke-opacity: 0.7; stroke-width: 0.6"/>
     </g>
     <g id="line2d_32">
      <g>
       <use xlink:href="#m640cffc1f2" x="54" y="51.84" style="fill: #1a1a1a; stroke: #1a1a1a; stroke-width: 0.8"/>
      </g>
     </g>
     <g id="text_17">
      <!-- 5 -->
      <g style="fill: #1a1a1a" transform="translate(42.865 56.399062) scale(0.12 -0.12)">
       <use xlink:href="#DejaVuSans-35"/>
      </g>
     </g>
    </g>
    <g id="text_18">
     <!-- $y$ -->
     <g style="fill: #1a1a1a" transform="translate(26.289375 221.76) rotate(-90) scale(0.12 -0.12)">
      <defs>
       <path id="DejaVuSans-Oblique-79" d="M 1588 -325 
Q 1188 -997 936 -1164 
Q 684 -1331 294 -1331 
L -159 -1331 
L -63 -850 
L 269 -850 
Q 509 -850 678 -719 
Q 847 -588 1056 -206 
L 1234 128 
L 459 3500 
L 1069 3500 
L 1650 819 
L 3256 3500 
L 3859 3500 
L 1588 -325 
z
" transform="scale(0.015625)"/>
      </defs>
      <use xlink:href="#DejaVuSans-Oblique-79" transform="translate(0 0.3125)"/>
     </g>
    </g>
   </g>
   <g id="line2d_33">
    <path d="M 54 93.42 
L 57.381818 98.421818 
L 60.763636 103.347273 
L 64.145455 108.196364 
L 67.527273 112.969091 
L 70.909091 117.665455 
L 74.290909 122.285455 
L 77.672727 126.829091 
L 81.054545 131.296364 
L 84.436364 135.687273 
L 87.818182 140.001818 
L 91.2 144.24 
L 94.581818 148.401818 
L 97.963636 152.487273 
L 101.345455 156.496364 
L 104.727273 160.429091 
L 108.109091 164.285455 
L 111.490909 168.065455 
L 114.872727 171.769091 
L 118.254545 175.396364 
L 121.636364 178.947273 
L 125.018182 182.421818 
L 128.4 185.82 
L 131.781818 189.141818 
L 135.163636 192.387273 
L 138.545455 195.556364 
L 141.927273 198.649091 
L 145.309091 201.665455 
L 148.690909 204.605455 
L 152.072727 207.469091 
L 155.454545 210.256364 
L 158.836364 212.967273 
L 162.218182 215.601818 
L 165.6 218.16 
L 168.981818 220.641818 
L 172.363636 223.047273 
L 175.745455 225.376364 
L 179.127273 227.629091 
L 182.509091 229.805455 
L 185.890909 231.905455 
L 189.272727 233.929091 
L 192.654545 235.876364 
L 196.036364 237.747273 
L 199.418182 239.541818 
L 202.8 241.26 
L 206.181818 242.901818 
L 209.563636 244.467273 
L 212.945455 245.956364 
L 216.327273 247.369091 
L 219.709091 248.705455 
L 223.090909 249.965455 
L 226.472727 251.149091 
L 229.854545 252.256364 
L 233.236364 253.287273 
L 236.618182 254.241818 
L 240 255.12 
L 243.381818 255.921818 
L 246.763636 256.647273 
L 250.145455 257.296364 
L 253.527273 257.869091 
L 256.909091 258.365455 
L 260.290909 258.785455 
L 263.672727 259.129091 
L 267.054545 259.396364 
L 270.436364 259.587273 
L 273.818182 259.701818 
L 277.2 259.74 
L 280.581818 259.701818 
L 283.963636 259.587273 
L 287.345455 259.396364 
L 290.727273 259.129091 
L 294.109091 258.785455 
L 297.490909 258.365455 
L 300.872727 257.869091 
L 304.254545 257.296364 
L 307.636364 256.647273 
L 311.018182 255.921818 
L 314.4 255.12 
L 317.781818 254.241818 
L 321.163636 253.287273 
L 324.545455 252.256364 
L 327.927273 251.149091 
L 331.309091 249.965455 
L 334.690909 248.705455 
L 338.072727 247.369091 
L 341.454545 245.956364 
L 344.836364 244.467273 
L 348.218182 242.901818 
L 351.6 241.26 
L 354.981818 239.541818 
L 358.363636 237.747273 
L 361.745455 235.876364 
L 365.127273 233.929091 
L 368.509091 231.905455 
L 371.890909 229.805455 
L 375.272727 227.629091 
L 378.654545 225.376364 
L 382.036364 223.047273 
L 385.418182 220.641818 
L 388.8 218.16 
" clip-path="url(#p942cbe35d3)" style="fill: none; stroke: #0000ff; stroke-width: 2; stroke-linecap: square"/>
   </g>
   <g id="line2d_34">
    <path d="M 277.2 384.48 
L 277.2 51.84 
" clip-path="url(#p942cbe35d3)" style="fill: none; stroke-dasharray: 7.4,3.2; stroke-dashoffset: 0; stroke: #008000; stroke-width: 2"/>
   </g>
   <g id="line2d_35">
    <path d="M 54 384.48 
L 54 51.84 
" clip-path="url(#p942cbe35d3)" style="fill: none; stroke-dasharray: 3.7,1.6; stroke-dashoffset: 0; stroke: #808080"/>
   </g>
   <g id="line2d_36">
    <path d="M 388.8 384.48 
L 388.8 51.84 
" clip-path="url(#p942cbe35d3)" style="fill: none; stroke-dasharray: 3.7,1.6; stroke-dashoffset: 0; stroke: #808080"/>
   </g>
   <g id="line2d_37">
    <path d="M 54 384.48 
L 388.8 384.48 
" clip-path="url(#p942cbe35d3)" style="fill: none; stroke-dasharray: 3.7,1.6; stroke-dashoffset: 0; stroke: #808080"/>
   </g>
   <g id="line2d_38">
    <path d="M 54 51.84 
L 388.8 51.84 
" clip-path="url(#p942cbe35d3)" style="fill: none; stroke-dasharray: 3.7,1.6; stroke-dashoffset: 0; stroke: #808080"/>
   </g>
   <g id="patch_3">
    <path d="M 54 384.48 
L 54 51.84 
" style="fill: none; stroke: #1a1a1a; stroke-linejoin: miter; stroke-linecap: square"/>
   </g>
   <g id="patch_4">
    <path d="M 54 384.48 
L 388.8 384.48 
" style="fill: none; stroke: #1a1a1a; stroke-linejoin: miter; stroke-linecap: square"/>
   </g>
   <g id="text_19">
    <!--  $x_0$ -->
    <g style="fill: #800080" transform="translate(148.92 340.404375) scale(0.12 -0.12)">
     <defs>
      <path id="DejaVuSans-20" transform="scale(0.015625)"/>
     </defs>
     <use xlink:href="#DejaVuSans-20" transform="translate(0 0.3125)"/>
     <use xlink:href="#DejaVuSans-Oblique-78" transform="translate(31.787109 0.3125)"/>
     <use xlink:href="#DejaVuSans-30" transform="translate(90.966797 -16.09375) scale(0.7)"/>
    </g>
   </g>
   <g id="text_20">
    <!-- Feasible Region -->
    <g style="fill: #333333" transform="translate(158.87 45.84) scale(0.16 -0.16)">
     <defs>
      <path id="DejaVuSans-46" d="M 628 4666 
L 3309 4666 
L 3309 4134 
L 1259 4134 
L 1259 2759 
L 3109 2759 
L 3109 2228 
L 1259 2228 
L 1259 0 
L 628 0 
L 628 4666 
z
" transform="scale(0.015625)"/>
      <path id="DejaVuSans-65" d="M 3597 1894 
L 3597 1613 
L 953 1613 
Q 991 1019 1311 708 
Q 1631 397 2203 397 
Q 2534 397 2845 478 
Q 3156 559 3463 722 
L 3463 178 
Q 3153 47 2828 -22 
Q 2503 -91 2169 -91 
Q 1331 -91 842 396 
Q 353 884 353 1716 
Q 353 2575 817 3079 
Q 1281 3584 2069 3584 
Q 2775 3584 3186 3129 
Q 3597 2675 3597 1894 
z
M 3022 2063 
Q 3016 2534 2758 2815 
Q 2500 3097 2075 3097 
Q 1594 3097 1305 2825 
Q 1016 2553 972 2059 
L 3022 2063 
z
" transform="scale(0.015625)"/>
      <path id="DejaVuSans-61" d="M 2194 1759 
Q 1497 1759 1228 1600 
Q 959 1441 959 1056 
Q 959 750 1161 570 
Q 1363 391 1709 391 
Q 2188 391 2477 730 
Q 2766 1069 2766 1631 
L 2766 1759 
L 2194 1759 
z
M 3341 1997 
L 3341 0 
L 2766 0 
L 2766 531 
Q 2569 213 2275 61 
Q 1981 -91 1556 -91 
Q 1019 -91 701 211 
Q 384 513 384 1019 
Q 384 1609 779 1909 
Q 1175 2209 1959 2209 
L 2766 2209 
L 2766 2266 
Q 2766 2663 2505 2880 
Q 2244 3097 1772 3097 
Q 1472 3097 1187 3025 
Q 903 2953 641 2809 
L 641 3341 
Q 956 3463 1253 3523 
Q 1550 3584 1831 3584 
Q 2591 3584 2966 3190 
Q 3341 2797 3341 1997 
z
" transform="scale(0.015625)"/>
      <path id="DejaVuSans-73" d="M 2834 3397 
L 2834 2853 
Q 2591 2978 2328 3040 
Q 2066 3103 1784 3103 
Q 1356 3103 1142 2972 
Q 928 2841 928 2578 
Q 928 2378 1081 2264 
Q 1234 2150 1697 2047 
L 1894 2003 
Q 2506 1872 2764 1633 
Q 3022 1394 3022 966 
Q 3022 478 2636 193 
Q 2250 -91 1575 -91 
Q 1294 -91 989 -36 
Q 684 19 347 128 
L 347 722 
Q 666 556 975 473 
Q 1284 391 1588 391 
Q 1994 391 2212 530 
Q 2431 669 2431 922 
Q 2431 1156 2273 1281 
Q 2116 1406 1581 1522 
L 1381 1569 
Q 847 1681 609 1914 
Q 372 2147 372 2553 
Q 372 3047 722 3315 
Q 1072 3584 1716 3584 
Q 2034 3584 2315 3537 
Q 2597 3491 2834 3397 
z
" transform="scale(0.015625)"/>
      <path id="DejaVuSans-69" d="M 603 3500 
L 1178 3500 
L 1178 0 
L 603 0 
L 603 3500 
z
M 603 4863 
L 1178 4863 
L 1178 4134 
L 603 4134 
L 603 4863 
z
" transform="scale(0.015625)"/>
      <path id="DejaVuSans-62" d="M 3116 1747 
Q 3116 2381 2855 2742 
Q 2594 3103 2138 3103 
Q 1681 3103 1420 2742 
Q 1159 2381 1159 1747 
Q 1159 1113 1420 752 
Q 1681 391 2138 391 
Q 2594 391 2855 752 
Q 3116 1113 3116 1747 
z
M 1159 2969 
Q 1341 3281 1617 3432 
Q 1894 3584 2278 3584 
Q 2916 3584 3314 3078 
Q 3713 2572 3713 1747 
Q 3713 922 3314 415 
Q 2916 -91 2278 -91 
Q 1894 -91 1617 61 
Q 1341 213 1159 525 
L 1159 0 
L 581 0 
L 581 4863 
L 1159 4863 
L 1159 2969 
z
" transform="scale(0.015625)"/>
      <path id="DejaVuSans-6c" d="M 603 4863 
L 1178 4863 
L 1178 0 
L 603 0 
L 603 4863 
z
" transform="scale(0.015625)"/>
      <path id="DejaVuSans-52" d="M 2841 2188 
Q 3044 2119 3236 1894 
Q 3428 1669 3622 1275 
L 4263 0 
L 3584 0 
L 2988 1197 
Q 2756 1666 2539 1819 
Q 2322 1972 1947 1972 
L 1259 1972 
L 1259 0 
L 628 0 
L 628 4666 
L 2053 4666 
Q 2853 4666 3247 4331 
Q 3641 3997 3641 3322 
Q 3641 2881 3436 2590 
Q 3231 2300 2841 2188 
z
M 1259 4147 
L 1259 2491 
L 2053 2491 
Q 2509 2491 2742 2702 
Q 2975 2913 2975 3322 
Q 2975 3731 2742 3939 
Q 2509 4147 2053 4147 
L 1259 4147 
z
" transform="scale(0.015625)"/>
      <path id="DejaVuSans-67" d="M 2906 1791 
Q 2906 2416 2648 2759 
Q 2391 3103 1925 3103 
Q 1463 3103 1205 2759 
Q 947 2416 947 1791 
Q 947 1169 1205 825 
Q 1463 481 1925 481 
Q 2391 481 2648 825 
Q 2906 1169 2906 1791 
z
M 3481 434 
Q 3481 -459 3084 -895 
Q 2688 -1331 1869 -1331 
Q 1566 -1331 1297 -1286 
Q 1028 -1241 775 -1147 
L 775 -588 
Q 1028 -725 1275 -790 
Q 1522 -856 1778 -856 
Q 2344 -856 2625 -561 
Q 2906 -266 2906 331 
L 2906 616 
Q 2728 306 2450 153 
Q 2172 0 1784 0 
Q 1141 0 747 490 
Q 353 981 353 1791 
Q 353 2603 747 3093 
Q 1141 3584 1784 3584 
Q 2172 3584 2450 3431 
Q 2728 3278 2906 2969 
L 2906 3500 
L 3481 3500 
L 3481 434 
z
" transform="scale(0.015625)"/>
      <path id="DejaVuSans-6f" d="M 1959 3097 
Q 1497 3097 1228 2736 
Q 959 2375 959 1747 
Q 959 1119 1226 758 
Q 1494 397 1959 397 
Q 2419 397 2687 759 
Q 2956 1122 2956 1747 
Q 2956 2369 2687 2733 
Q 2419 3097 1959 3097 
z
M 1959 3584 
Q 2709 3584 3137 3096 
Q 3566 2609 3566 1747 
Q 3566 888 3137 398 
Q 2709 -91 1959 -91 
Q 1206 -91 779 398 
Q 353 888 353 1747 
Q 353 2609 779 3096 
Q 1206 3584 1959 3584 
z
" transform="scale(0.015625)"/>
      <path id="DejaVuSans-6e" d="M 3513 2113 
L 3513 0 
L 2938 0 
L 2938 2094 
Q 2938 2591 2744 2837 
Q 2550 3084 2163 3084 
Q 1697 3084 1428 2787 
Q 1159 2491 1159 1978 
L 1159 0 
L 581 0 
L 581 3500 
L 1159 3500 
L 1159 2956 
Q 1366 3272 1645 3428 
Q 1925 3584 2291 3584 
Q 2894 3584 3203 3211 
Q 3513 2838 3513 2113 
z
" transform="scale(0.015625)"/>
     </defs>
     <use xlink:href="#DejaVuSans-46"/>
     <use xlink:href="#DejaVuSans-65" x="52.019531"/>
     <use xlink:href="#DejaVuSans-61" x="113.542969"/>
     <use xlink:href="#DejaVuSans-73" x="174.822266"/>
     <use xlink:href="#DejaVuSans-69" x="226.921875"/>
     <use xlink:href="#DejaVuSans-62" x="254.705078"/>
     <use xlink:href="#DejaVuSans-6c" x="318.181641"/>
     <use xlink:href="#DejaVuSans-65" x="345.964844"/>
     <use xlink:href="#DejaVuSans-20" x="407.488281"/>
     <use xlink:href="#DejaVuSans-52" x="439.275391"/>
     <use xlink:href="#DejaVuSans-65" x="504.257812"/>
     <use xlink:href="#DejaVuSans-67" x="565.78125"/>
     <use xlink:href="#DejaVuSans-69" x="629.257812"/>
     <use xlink:href="#DejaVuSans-6f" x="657.041016"/>
     <use xlink:href="#DejaVuSans-6e" x="718.222656"/>
    </g>
   </g>
   <g id="legend_1">
    <g id="patch_5">
     <path d="M 320.5 120.074375 
L 381.8 120.074375 
Q 383.8 120.074375 383.8 118.074375 
L 383.8 58.84 
Q 383.8 56.84 381.8 56.84 
L 320.5 56.84 
Q 318.5 56.84 318.5 58.84 
L 318.5 118.074375 
Q 318.5 120.074375 320.5 120.074375 
z
" style="fill: #ffffff; opacity: 0.8; stroke: #cccccc; stroke-linejoin: miter"/>
    </g>
    <g id="line2d_39">
     <path d="M 322.5 66.44 
L 332.5 66.44 
L 342.5 66.44 
" style="fill: none; stroke: #0000ff; stroke-width: 2; stroke-linecap: square"/>
    </g>
    <g id="text_21">
     <!-- $y = x^2$ -->
     <g style="fill: #333333" transform="translate(350.5 69.94) scale(0.1 -0.1)">
      <defs>
       <path id="DejaVuSans-3d" d="M 678 2906 
L 4684 2906 
L 4684 2381 
L 678 2381 
L 678 2906 
z
M 678 1631 
L 4684 1631 
L 4684 1100 
L 678 1100 
L 678 1631 
z
" transform="scale(0.015625)"/>
      </defs>
      <use xlink:href="#DejaVuSans-Oblique-79" transform="translate(0 0.765625)"/>
      <use xlink:href="#DejaVuSans-3d" transform="translate(78.662109 0.765625)"/>
      <use xlink:href="#DejaVuSans-Oblique-78" transform="translate(181.933594 0.765625)"/>
      <use xlink:href="#DejaVuSans-32" transform="translate(245.579427 39.046875) scale(0.7)"/>
     </g>
    </g>
    <g id="PathCollection_4">
     <g>
      <use xlink:href="#mc5bd1ba166" x="332.5" y="82.013437" style="fill: #ff0000; stroke: #ff0000; stroke-width: 1.5"/>
     </g>
    </g>
    <g id="text_22">
     <!-- (0,0) -->
     <g style="fill: #333333" transform="translate(350.5 84.638437) scale(0.1 -0.1)">
      <defs>
       <path id="DejaVuSans-28" d="M 1984 4856 
Q 1566 4138 1362 3434 
Q 1159 2731 1159 2009 
Q 1159 1288 1364 580 
Q 1569 -128 1984 -844 
L 1484 -844 
Q 1016 -109 783 600 
Q 550 1309 550 2009 
Q 550 2706 781 3412 
Q 1013 4119 1484 4856 
L 1984 4856 
z
" transform="scale(0.015625)"/>
       <path id="DejaVuSans-2c" d="M 750 794 
L 1409 794 
L 1409 256 
L 897 -744 
L 494 -744 
L 750 256 
L 750 794 
z
" transform="scale(0.015625)"/>
       <path id="DejaVuSans-29" d="M 513 4856 
L 1013 4856 
Q 1481 4119 1714 3412 
Q 1947 2706 1947 2009 
Q 1947 1309 1714 600 
Q 1481 -109 1013 -844 
L 513 -844 
Q 928 -128 1133 580 
Q 1338 1288 1338 2009 
Q 1338 2731 1133 3434 
Q 928 4138 513 4856 
z
" transform="scale(0.015625)"/>
      </defs>
      <use xlink:href="#DejaVuSans-28"/>
      <use xlink:href="#DejaVuSans-30" x="39.013672"/>
      <use xlink:href="#DejaVuSans-2c" x="102.636719"/>
      <use xlink:href="#DejaVuSans-30" x="134.423828"/>
      <use xlink:href="#DejaVuSans-29" x="198.046875"/>
     </g>
    </g>
    <g id="PathCollection_5">
     <g>
      <use xlink:href="#m508b3aa8d1" x="332.5" y="96.691562" style="fill: #800080; stroke: #800080; stroke-width: 1.5"/>
     </g>
    </g>
    <g id="text_23">
     <!-- $x_0$ -->
     <g style="fill: #333333" transform="translate(350.5 99.316562) scale(0.1 -0.1)">
      <use xlink:href="#DejaVuSans-Oblique-78" transform="translate(0 0.3125)"/>
      <use xlink:href="#DejaVuSans-30" transform="translate(59.179688 -16.09375) scale(0.7)"/>
     </g>
    </g>
    <g id="line2d_40">
     <path d="M 322.5 110.494687 
L 332.5 110.494687 
L 342.5 110.494687 
" style="fill: none; stroke-dasharray: 7.4,3.2; stroke-dashoffset: 0; stroke: #008000; stroke-width: 2"/>
    </g>
    <g id="text_24">
     <!-- $x \geq 0$ -->
     <g style="fill: #333333" transform="translate(350.5 113.994687) scale(0.1 -0.1)">
      <defs>
       <path id="DejaVuSans-2265" d="M 678 3175 
L 678 3725 
L 4684 2578 
L 4684 2047 
L 678 897 
L 678 1453 
L 3681 2309 
L 678 3175 
z
M 4684 531 
L 4684 0 
L 678 0 
L 678 531 
L 4684 531 
z
" transform="scale(0.015625)"/>
      </defs>
      <use xlink:href="#DejaVuSans-Oblique-78" transform="translate(0 0.78125)"/>
      <use xlink:href="#DejaVuSans-2265" transform="translate(78.662109 0.78125)"/>
      <use xlink:href="#DejaVuSans-30" transform="translate(181.933594 0.78125)"/>
     </g>
    </g>
   </g>
  </g>
 </g>
 <defs>
  <clipPath id="p942cbe35d3">
   <rect x="54" y="51.84" width="334.8" height="332.64"/>
  </clipPath>
 </defs>
</svg>
